<?xml version="1.0" ?><!DOCTYPE svg  PUBLIC '-//W3C//DTD SVG 1.1//EN'  'http://www.w3.org/Graphics/SVG/1.1/DTD/svg11.dtd'><svg enable-background="new 0 0 24 24" height="24px" id="Layer_1" version="1.1" viewBox="0 0 24 24" width="24px" xml:space="preserve" xmlns="http://www.w3.org/2000/svg" xmlns:xlink="http://www.w3.org/1999/xlink"><g id="icon"><circle cx="12" cy="11.9975" fill="#6EBC51" r="11"/><path d="M7.6849,13.9966c0.5063,0,0.964,-0.1891,1.3224,-0.4923l4.1835,2.0918c-0.0031,0.0397,-0.0121,0.0763,-0.0121,0.1175c0,1.1391,0.9212,2.0614,2.0606,2.0614c1.1379,0,2.0606,-0.9223,2.0606,-2.0614c0,-1.1383,-0.9227,-2.0602,-2.0606,-2.0602c-0.5063,0,-0.9644,0.1891,-1.3224,0.4927l-4.1828,-2.0918c0.0016,-0.0397,0.0105,-0.0767,0.0105,-0.1167c0,-0.0409,-0.0093,-0.0786,-0.0105,-0.1187l4.1828,-2.0929c0.358,0.3032,0.8157,0.4939,1.3224,0.4939c1.1379,0,2.0606,-0.9219,2.0606,-2.061C17.3,7.0215,16.3773,6.1,15.2394,6.1c-1.1395,0,-2.0606,0.9215,-2.0606,2.0591c0,0.0409,0.009,0.0786,0.0121,0.1183l-4.1835,2.0914c-0.3588,-0.3028,-0.8165,-0.4931,-1.3224,-0.4931c-1.1379,0,-2.0599,0.9227,-2.0599,2.0618C5.625,13.075,6.5469,13.9966,7.6849,13.9966z" fill="#FFFFFF"/><path d="M4.2218,19.7782C6.2124,21.7688,8.9624,23,12,23c6.0751,0,11,-4.9249,11,-11c0,-3.0376,-1.2312,-5.7876,-3.2218,-7.7782L4.2218,19.7782z" fill="#231F20" opacity="0.1"/></g></svg>