<?xml version="1.0" encoding="UTF-8" standalone="no"?>
<svg
   xmlns:dc="http://purl.org/dc/elements/1.1/"
   xmlns:cc="http://creativecommons.org/ns#"
   xmlns:rdf="http://www.w3.org/1999/02/22-rdf-syntax-ns#"
   xmlns:svg="http://www.w3.org/2000/svg"
   xmlns="http://www.w3.org/2000/svg"
   xmlns:sodipodi="http://sodipodi.sourceforge.net/DTD/sodipodi-0.dtd"
   xmlns:inkscape="http://www.inkscape.org/namespaces/inkscape"
   enable-background="new 0 0 24 24"
   height="24px"
   id="Layer_1"
   version="1.1"
   viewBox="0 0 24 24"
   width="24px"
   xml:space="preserve"
   sodipodi:docname="share-icon.svg"
   inkscape:version="0.92.3 (2405546, 2018-03-11)"><metadata
     id="metadata14"><rdf:RDF><cc:Work
         rdf:about=""><dc:format>image/svg+xml</dc:format><dc:type
           rdf:resource="http://purl.org/dc/dcmitype/StillImage" /></cc:Work></rdf:RDF></metadata><defs
     id="defs12" /><sodipodi:namedview
     pagecolor="#ffffff"
     bordercolor="#666666"
     borderopacity="1"
     objecttolerance="10"
     gridtolerance="10"
     guidetolerance="10"
     inkscape:pageopacity="0"
     inkscape:pageshadow="2"
     inkscape:window-width="1687"
     inkscape:window-height="1385"
     id="namedview10"
     showgrid="false"
     inkscape:zoom="9.8333333"
     inkscape:cx="12"
     inkscape:cy="12"
     inkscape:window-x="1753"
     inkscape:window-y="27"
     inkscape:window-maximized="0"
     inkscape:current-layer="icon" /><g
     id="icon"><circle
       cx="12"
       cy="11.9975"
       fill="#6EBC51"
       r="11"
       id="circle2"
       style="fill:#ff8080" /><path
       d="M7.6849,13.9966c0.5063,0,0.964,-0.1891,1.3224,-0.4923l4.1835,2.0918c-0.0031,0.0397,-0.0121,0.0763,-0.0121,0.1175c0,1.1391,0.9212,2.0614,2.0606,2.0614c1.1379,0,2.0606,-0.9223,2.0606,-2.0614c0,-1.1383,-0.9227,-2.0602,-2.0606,-2.0602c-0.5063,0,-0.9644,0.1891,-1.3224,0.4927l-4.1828,-2.0918c0.0016,-0.0397,0.0105,-0.0767,0.0105,-0.1167c0,-0.0409,-0.0093,-0.0786,-0.0105,-0.1187l4.1828,-2.0929c0.358,0.3032,0.8157,0.4939,1.3224,0.4939c1.1379,0,2.0606,-0.9219,2.0606,-2.061C17.3,7.0215,16.3773,6.1,15.2394,6.1c-1.1395,0,-2.0606,0.9215,-2.0606,2.0591c0,0.0409,0.009,0.0786,0.0121,0.1183l-4.1835,2.0914c-0.3588,-0.3028,-0.8165,-0.4931,-1.3224,-0.4931c-1.1379,0,-2.0599,0.9227,-2.0599,2.0618C5.625,13.075,6.5469,13.9966,7.6849,13.9966z"
       fill="#FFFFFF"
       id="path4" /><path
       d="M4.2218,19.7782C6.2124,21.7688,8.9624,23,12,23c6.0751,0,11,-4.9249,11,-11c0,-3.0376,-1.2312,-5.7876,-3.2218,-7.7782L4.2218,19.7782z"
       fill="#231F20"
       opacity="0.1"
       id="path6" /></g></svg>